<svg width="62" height="12" viewBox="0 0 62 12" fill="none" xmlns="http://www.w3.org/2000/svg">
<rect width="62" height="12" fill="#F5F5F5"/>
<path d="M6.05859 9.88477H0V1.44727H2.32617V8.8125H6.05859V9.88477ZM13.6348 9.88477H11.6543V9.07617C11.4199 9.39648 11.1367 9.63477 10.8047 9.79102C10.4766 9.94336 10.1152 10.0195 9.7207 10.0195C9.20508 10.0195 8.74414 9.92773 8.33789 9.74414C7.93164 9.56055 7.58789 9.31055 7.30664 8.99414C7.02539 8.67383 6.81055 8.29883 6.66211 7.86914C6.51367 7.43945 6.43945 6.97852 6.43945 6.48633C6.43945 5.99414 6.51367 5.5332 6.66211 5.10352C6.81055 4.67383 7.02539 4.30078 7.30664 3.98438C7.58789 3.66406 7.93164 3.41211 8.33789 3.22852C8.74414 3.04492 9.20508 2.95312 9.7207 2.95312C9.98242 2.95312 10.2305 2.99219 10.4648 3.07031C10.7031 3.14844 10.9199 3.25977 11.1152 3.4043C11.3145 3.54492 11.4883 3.7168 11.6367 3.91992C11.7891 4.11914 11.9082 4.3418 11.9941 4.58789L12.873 3.11719H13.6348V9.88477ZM11.6426 6.48633C11.6426 6.31055 11.6328 6.125 11.6133 5.92969C11.5977 5.73438 11.5684 5.54102 11.5254 5.34961C11.4824 5.1582 11.4219 4.97656 11.3438 4.80469C11.2695 4.62891 11.1719 4.47461 11.0508 4.3418C10.9336 4.20508 10.791 4.09766 10.623 4.01953C10.4551 3.94141 10.2598 3.90234 10.0371 3.90234C9.81445 3.90234 9.62109 3.94336 9.45703 4.02539C9.29297 4.10352 9.15234 4.21094 9.03516 4.34766C8.91797 4.48047 8.82031 4.63477 8.74219 4.81055C8.66797 4.98633 8.60938 5.16992 8.56641 5.36133C8.52344 5.55273 8.49219 5.74609 8.47266 5.94141C8.45703 6.13281 8.44922 6.31445 8.44922 6.48633C8.44922 6.6582 8.45703 6.8418 8.47266 7.03711C8.49219 7.23242 8.52344 7.42578 8.56641 7.61719C8.60938 7.80859 8.66797 7.99219 8.74219 8.16797C8.82031 8.34375 8.91797 8.5 9.03516 8.63672C9.15234 8.76953 9.29297 8.87695 9.45703 8.95898C9.62109 9.03711 9.81445 9.07617 10.0371 9.07617C10.2402 9.07617 10.4199 9.03516 10.5762 8.95312C10.7363 8.86719 10.875 8.75391 10.9922 8.61328C11.1133 8.47266 11.2148 8.3125 11.2969 8.13281C11.3789 7.95312 11.4453 7.76758 11.4961 7.57617C11.5469 7.38477 11.584 7.19531 11.6074 7.00781C11.6309 6.81641 11.6426 6.64258 11.6426 6.48633ZM21.1172 7.72266C21.1172 8.01953 21.0742 8.2832 20.9883 8.51367C20.9023 8.74414 20.7852 8.94531 20.6367 9.11719C20.4883 9.28516 20.3125 9.42773 20.1094 9.54492C19.9062 9.6582 19.6875 9.75 19.4531 9.82031C19.2227 9.89062 18.9805 9.94141 18.7266 9.97266C18.4727 10.0039 18.2207 10.0195 17.9707 10.0195C17.6348 10.0195 17.3379 9.99805 17.0801 9.95508C16.8223 9.91211 16.5762 9.84375 16.3418 9.75C16.1074 9.65234 15.873 9.52734 15.6387 9.375C15.4082 9.22266 15.1504 9.03711 14.8652 8.81836L16.0195 7.875C16.125 8.07422 16.2637 8.25586 16.4355 8.41992C16.6113 8.58008 16.793 8.71875 16.9805 8.83594C17.168 8.95312 17.3496 9.04297 17.5254 9.10547C17.7012 9.16797 17.8438 9.19922 17.9531 9.19922C18.043 9.19922 18.1445 9.19727 18.2578 9.19336C18.3711 9.18555 18.4863 9.17383 18.6035 9.1582C18.7207 9.13867 18.8359 9.11133 18.9492 9.07617C19.0625 9.04102 19.1621 8.99414 19.248 8.93555C19.3379 8.87305 19.4082 8.79688 19.459 8.70703C19.5137 8.61328 19.541 8.50195 19.541 8.37305C19.541 8.24023 19.5059 8.125 19.4355 8.02734C19.3691 7.92578 19.2812 7.83789 19.1719 7.76367C19.0625 7.68945 18.9375 7.62695 18.7969 7.57617C18.6562 7.52539 18.5137 7.48047 18.3691 7.44141C18.2285 7.40234 18.0918 7.36914 17.959 7.3418C17.8262 7.31055 17.7109 7.28125 17.6133 7.25391C17.4336 7.20312 17.2441 7.15234 17.0449 7.10156C16.8457 7.04688 16.6484 6.98633 16.4531 6.91992C16.2578 6.84961 16.0703 6.76758 15.8906 6.67383C15.7148 6.58008 15.5586 6.46875 15.4219 6.33984C15.2891 6.20703 15.1816 6.05273 15.0996 5.87695C15.0215 5.69727 14.9824 5.48828 14.9824 5.25C14.9824 4.8125 15.0684 4.44727 15.2402 4.1543C15.416 3.85742 15.6465 3.62109 15.9316 3.44531C16.2168 3.26562 16.541 3.13867 16.9043 3.06445C17.2676 2.99023 17.6367 2.95312 18.0117 2.95312C18.2695 2.95312 18.541 2.98047 18.8262 3.03516C19.1113 3.08594 19.3887 3.16406 19.6582 3.26953C19.9277 3.37109 20.1797 3.49609 20.4141 3.64453C20.6484 3.79297 20.8438 3.96289 21 4.1543L19.8457 5.10352C19.7598 4.86914 19.6465 4.66797 19.5059 4.5C19.3691 4.33203 19.2188 4.19531 19.0547 4.08984C18.8945 3.98047 18.7285 3.90039 18.5566 3.84961C18.3887 3.79883 18.2324 3.77344 18.0879 3.77344C17.9473 3.77344 17.7891 3.7793 17.6133 3.79102C17.4375 3.80273 17.2715 3.83594 17.1152 3.89062C16.9629 3.94531 16.832 4.0293 16.7227 4.14258C16.6172 4.25195 16.5645 4.4043 16.5645 4.59961C16.5645 4.74023 16.5957 4.86133 16.6582 4.96289C16.7246 5.06055 16.8105 5.14648 16.916 5.2207C17.0215 5.29102 17.1406 5.35156 17.2734 5.40234C17.4102 5.44922 17.5488 5.49219 17.6895 5.53125C17.8301 5.56641 17.9668 5.59766 18.0996 5.625C18.2324 5.65234 18.3516 5.68164 18.457 5.71289C18.6367 5.76367 18.8262 5.81641 19.0254 5.87109C19.2285 5.92188 19.4277 5.98242 19.623 6.05273C19.8184 6.11914 20.0059 6.19922 20.1855 6.29297C20.3691 6.38281 20.5293 6.49414 20.666 6.62695C20.8027 6.75977 20.9121 6.91602 20.9941 7.0957C21.0762 7.27148 21.1172 7.48047 21.1172 7.72266ZM33.9316 5.84766V5.95898C33.9238 6.28711 33.8887 6.62695 33.8262 6.97852C33.7676 7.33008 33.6836 7.68164 33.5742 8.0332C33.4648 8.38477 33.334 8.73242 33.1816 9.07617C33.0293 9.41992 32.8574 9.74805 32.666 10.0605C32.4785 10.377 32.2754 10.6719 32.0566 10.9453C31.8379 11.2227 31.6074 11.4668 31.3652 11.6777L30.4922 11.1738C30.6289 10.9434 30.752 10.6914 30.8613 10.418C30.9746 10.1484 31.0762 9.86523 31.166 9.56836C31.2559 9.27148 31.332 8.9668 31.3945 8.6543C31.4609 8.3418 31.5156 8.03125 31.5586 7.72266C31.6016 7.41406 31.6328 7.11133 31.6523 6.81445C31.6758 6.51367 31.6875 6.22852 31.6875 5.95898C31.6875 5.74805 31.6855 5.50977 31.6816 5.24414C31.6816 4.97461 31.666 4.70117 31.6348 4.42383C31.6074 4.14648 31.5605 3.87695 31.4941 3.61523C31.4277 3.34961 31.3281 3.11328 31.1953 2.90625C31.0664 2.69922 30.8984 2.5332 30.6914 2.4082C30.4883 2.2832 30.2344 2.2207 29.9297 2.2207C29.6602 2.2207 29.4277 2.26758 29.2324 2.36133C29.041 2.45117 28.877 2.57422 28.7402 2.73047C28.6074 2.88281 28.5 3.06055 28.418 3.26367C28.3398 3.4668 28.2773 3.68164 28.2305 3.9082C28.1875 4.13086 28.1582 4.35742 28.1426 4.58789C28.1309 4.81445 28.125 5.0293 28.125 5.23242V6.86719H30.6504V7.83398H28.125V9.88477H25.7988V5.5957C25.7988 4.98242 25.8965 4.41211 26.0918 3.88477C26.2871 3.35742 26.5625 2.90039 26.918 2.51367C27.2773 2.12305 27.707 1.81836 28.207 1.59961C28.7109 1.37695 29.2715 1.26562 29.8887 1.26562C30.3066 1.26562 30.6973 1.32617 31.0605 1.44727C31.4277 1.56445 31.7617 1.72852 32.0625 1.93945C32.3633 2.14648 32.6309 2.39453 32.8652 2.68359C33.1035 2.96875 33.3008 3.28125 33.457 3.62109C33.6172 3.96094 33.7383 4.32031 33.8203 4.69922C33.9023 5.07812 33.9395 5.46094 33.9316 5.84766ZM37.207 9.88477H35.2266V0H35.9883L37.207 2.05664V9.88477ZM45.6797 9.88477H44.918L44.0391 8.41406C43.9531 8.66016 43.834 8.88281 43.6816 9.08203C43.5332 9.28125 43.3594 9.45312 43.1602 9.59766C42.9648 9.73828 42.748 9.84766 42.5098 9.92578C42.2754 10.0039 42.0273 10.043 41.7656 10.043C41.25 10.043 40.7891 9.95117 40.3828 9.76758C39.9766 9.58398 39.6328 9.33398 39.3516 9.01758C39.0703 8.69727 38.8555 8.32227 38.707 7.89258C38.5586 7.46289 38.4844 7.00195 38.4844 6.50977C38.4844 6.01758 38.5586 5.55664 38.707 5.12695C38.8555 4.69727 39.0703 4.32422 39.3516 4.00781C39.6328 3.69141 39.9766 3.44141 40.3828 3.25781C40.7891 3.07422 41.25 2.98242 41.7656 2.98242C42.1602 2.98242 42.5215 3.05859 42.8496 3.21094C43.1816 3.36328 43.4648 3.60156 43.6992 3.92578V0.626953H45.6797V9.88477ZM43.6875 6.50977C43.6875 6.35352 43.6758 6.18164 43.6523 5.99414C43.6289 5.80664 43.5918 5.61719 43.541 5.42578C43.4902 5.23438 43.4238 5.04883 43.3418 4.86914C43.2598 4.68945 43.1582 4.5293 43.0371 4.38867C42.9199 4.24805 42.7812 4.13672 42.6211 4.05469C42.4648 3.96875 42.2852 3.92578 42.082 3.92578C41.8594 3.92578 41.666 3.9668 41.502 4.04883C41.3379 4.12695 41.1973 4.23438 41.0801 4.37109C40.9629 4.50391 40.8652 4.6582 40.7871 4.83398C40.7129 5.00977 40.6543 5.19336 40.6113 5.38477C40.5684 5.57617 40.5371 5.76953 40.5176 5.96484C40.502 6.15625 40.4941 6.33789 40.4941 6.50977C40.4941 6.68164 40.502 6.86523 40.5176 7.06055C40.5371 7.25195 40.5684 7.44336 40.6113 7.63477C40.6543 7.82617 40.7129 8.01172 40.7871 8.19141C40.8652 8.36719 40.9629 8.52344 41.0801 8.66016C41.1973 8.79297 41.3379 8.90039 41.502 8.98242C41.666 9.06055 41.8594 9.09961 42.082 9.09961C42.3047 9.09961 42.5 9.06055 42.668 8.98242C42.8359 8.9043 42.9785 8.79883 43.0957 8.66602C43.2168 8.5293 43.3145 8.375 43.3887 8.20312C43.4668 8.02734 43.5273 7.84375 43.5703 7.65234C43.6133 7.45703 43.6426 7.26172 43.6582 7.06641C43.6777 6.87109 43.6875 6.68555 43.6875 6.50977ZM54.1465 9.88477H52.166V9.07617C51.9316 9.39648 51.6484 9.63477 51.3164 9.79102C50.9883 9.94336 50.627 10.0195 50.2324 10.0195C49.7168 10.0195 49.2559 9.92773 48.8496 9.74414C48.4434 9.56055 48.0996 9.31055 47.8184 8.99414C47.5371 8.67383 47.3223 8.29883 47.1738 7.86914C47.0254 7.43945 46.9512 6.97852 46.9512 6.48633C46.9512 5.99414 47.0254 5.5332 47.1738 5.10352C47.3223 4.67383 47.5371 4.30078 47.8184 3.98438C48.0996 3.66406 48.4434 3.41211 48.8496 3.22852C49.2559 3.04492 49.7168 2.95312 50.2324 2.95312C50.4941 2.95312 50.7422 2.99219 50.9766 3.07031C51.2148 3.14844 51.4316 3.25977 51.627 3.4043C51.8262 3.54492 52 3.7168 52.1484 3.91992C52.3008 4.11914 52.4199 4.3418 52.5059 4.58789L53.3848 3.11719H54.1465V9.88477ZM52.1543 6.48633C52.1543 6.31055 52.1445 6.125 52.125 5.92969C52.1094 5.73438 52.0801 5.54102 52.0371 5.34961C51.9941 5.1582 51.9336 4.97656 51.8555 4.80469C51.7812 4.62891 51.6836 4.47461 51.5625 4.3418C51.4453 4.20508 51.3027 4.09766 51.1348 4.01953C50.9668 3.94141 50.7715 3.90234 50.5488 3.90234C50.3262 3.90234 50.1328 3.94336 49.9688 4.02539C49.8047 4.10352 49.6641 4.21094 49.5469 4.34766C49.4297 4.48047 49.332 4.63477 49.2539 4.81055C49.1797 4.98633 49.1211 5.16992 49.0781 5.36133C49.0352 5.55273 49.0039 5.74609 48.9844 5.94141C48.9688 6.13281 48.9609 6.31445 48.9609 6.48633C48.9609 6.6582 48.9688 6.8418 48.9844 7.03711C49.0039 7.23242 49.0352 7.42578 49.0781 7.61719C49.1211 7.80859 49.1797 7.99219 49.2539 8.16797C49.332 8.34375 49.4297 8.5 49.5469 8.63672C49.6641 8.76953 49.8047 8.87695 49.9688 8.95898C50.1328 9.03711 50.3262 9.07617 50.5488 9.07617C50.752 9.07617 50.9316 9.03516 51.0879 8.95312C51.248 8.86719 51.3867 8.75391 51.5039 8.61328C51.625 8.47266 51.7266 8.3125 51.8086 8.13281C51.8906 7.95312 51.957 7.76758 52.0078 7.57617C52.0586 7.38477 52.0957 7.19531 52.1191 7.00781C52.1426 6.81641 52.1543 6.64258 52.1543 6.48633ZM61.6289 7.72266C61.6289 8.01953 61.5859 8.2832 61.5 8.51367C61.4141 8.74414 61.2969 8.94531 61.1484 9.11719C61 9.28516 60.8242 9.42773 60.6211 9.54492C60.418 9.6582 60.1992 9.75 59.9648 9.82031C59.7344 9.89062 59.4922 9.94141 59.2383 9.97266C58.9844 10.0039 58.7324 10.0195 58.4824 10.0195C58.1465 10.0195 57.8496 9.99805 57.5918 9.95508C57.334 9.91211 57.0879 9.84375 56.8535 9.75C56.6191 9.65234 56.3848 9.52734 56.1504 9.375C55.9199 9.22266 55.6621 9.03711 55.377 8.81836L56.5312 7.875C56.6367 8.07422 56.7754 8.25586 56.9473 8.41992C57.123 8.58008 57.3047 8.71875 57.4922 8.83594C57.6797 8.95312 57.8613 9.04297 58.0371 9.10547C58.2129 9.16797 58.3555 9.19922 58.4648 9.19922C58.5547 9.19922 58.6562 9.19727 58.7695 9.19336C58.8828 9.18555 58.998 9.17383 59.1152 9.1582C59.2324 9.13867 59.3477 9.11133 59.4609 9.07617C59.5742 9.04102 59.6738 8.99414 59.7598 8.93555C59.8496 8.87305 59.9199 8.79688 59.9707 8.70703C60.0254 8.61328 60.0527 8.50195 60.0527 8.37305C60.0527 8.24023 60.0176 8.125 59.9473 8.02734C59.8809 7.92578 59.793 7.83789 59.6836 7.76367C59.5742 7.68945 59.4492 7.62695 59.3086 7.57617C59.168 7.52539 59.0254 7.48047 58.8809 7.44141C58.7402 7.40234 58.6035 7.36914 58.4707 7.3418C58.3379 7.31055 58.2227 7.28125 58.125 7.25391C57.9453 7.20312 57.7559 7.15234 57.5566 7.10156C57.3574 7.04688 57.1602 6.98633 56.9648 6.91992C56.7695 6.84961 56.582 6.76758 56.4023 6.67383C56.2266 6.58008 56.0703 6.46875 55.9336 6.33984C55.8008 6.20703 55.6934 6.05273 55.6113 5.87695C55.5332 5.69727 55.4941 5.48828 55.4941 5.25C55.4941 4.8125 55.5801 4.44727 55.752 4.1543C55.9277 3.85742 56.1582 3.62109 56.4434 3.44531C56.7285 3.26562 57.0527 3.13867 57.416 3.06445C57.7793 2.99023 58.1484 2.95312 58.5234 2.95312C58.7812 2.95312 59.0527 2.98047 59.3379 3.03516C59.623 3.08594 59.9004 3.16406 60.1699 3.26953C60.4395 3.37109 60.6914 3.49609 60.9258 3.64453C61.1602 3.79297 61.3555 3.96289 61.5117 4.1543L60.3574 5.10352C60.2715 4.86914 60.1582 4.66797 60.0176 4.5C59.8809 4.33203 59.7305 4.19531 59.5664 4.08984C59.4062 3.98047 59.2402 3.90039 59.0684 3.84961C58.9004 3.79883 58.7441 3.77344 58.5996 3.77344C58.459 3.77344 58.3008 3.7793 58.125 3.79102C57.9492 3.80273 57.7832 3.83594 57.627 3.89062C57.4746 3.94531 57.3438 4.0293 57.2344 4.14258C57.1289 4.25195 57.0762 4.4043 57.0762 4.59961C57.0762 4.74023 57.1074 4.86133 57.1699 4.96289C57.2363 5.06055 57.3223 5.14648 57.4277 5.2207C57.5332 5.29102 57.6523 5.35156 57.7852 5.40234C57.9219 5.44922 58.0605 5.49219 58.2012 5.53125C58.3418 5.56641 58.4785 5.59766 58.6113 5.625C58.7441 5.65234 58.8633 5.68164 58.9688 5.71289C59.1484 5.76367 59.3379 5.81641 59.5371 5.87109C59.7402 5.92188 59.9395 5.98242 60.1348 6.05273C60.3301 6.11914 60.5176 6.19922 60.6973 6.29297C60.8809 6.38281 61.041 6.49414 61.1777 6.62695C61.3145 6.75977 61.4238 6.91602 61.5059 7.0957C61.5879 7.27148 61.6289 7.48047 61.6289 7.72266Z" fill="black"/>
</svg>
